<svg width="256" height="95" viewBox="0 0 256 95" fill="none" xmlns="http://www.w3.org/2000/svg">
<path d="M0.720459 63.951V1.72874H25.5193C30.0447 1.72874 34.1175 2.46948 37.7377 3.95096C41.4184 5.43244 44.5559 7.56577 47.1504 10.351C49.745 13.1361 51.7361 16.425 53.1239 20.2176C54.5117 24.0102 55.2056 28.2176 55.2056 32.8398C55.2056 37.4621 54.5117 41.6991 53.1239 45.551C51.7361 49.3435 49.745 52.6324 47.1504 55.4176C44.6163 58.1436 41.5089 60.2473 37.8282 61.7287C34.1476 63.2102 30.0447 63.951 25.5193 63.951H0.720459ZM10.4952 55.6843L10.2237 54.7065H25.0668C28.2647 54.7065 31.1006 54.2028 33.5744 53.1954C36.1086 52.188 38.2204 50.7658 39.9099 48.9287C41.6597 47.0324 42.9871 44.7213 43.8922 41.9954C44.7973 39.2695 45.2498 36.2176 45.2498 32.8398C45.2498 29.4621 44.7973 26.4398 43.8922 23.7732C42.9871 21.0473 41.6597 18.7361 39.9099 16.8398C38.1601 14.9436 36.0483 13.4917 33.5744 12.4843C31.1006 11.4769 28.2647 10.9732 25.0668 10.9732H9.95215L10.4952 10.1732V55.6843ZM60.0491 63.951L84.5764 1.72874H94.5322L118.879 63.951H108.47L93.9891 26.4398C93.8081 26.025 93.4461 25.0176 92.9031 23.4176C92.4204 21.8176 91.8471 20.0398 91.1834 18.0843C90.5197 16.1287 89.9163 14.351 89.3733 12.751C88.8302 11.0917 88.4682 10.025 88.2872 9.55096L90.3689 9.46207C90.0068 10.4695 89.5543 11.7436 89.0113 13.2843C88.5286 14.825 87.9855 16.4547 87.3821 18.1732C86.8391 19.8917 86.2961 21.5213 85.753 23.0621C85.21 24.5436 84.7574 25.788 84.3954 26.7954L70.0048 63.951H60.0491ZM70.9099 48.4843L74.5302 39.2398H103.311L107.475 48.4843H70.9099ZM149.578 64.8398C146.139 64.8398 142.941 64.3954 139.984 63.5065C137.088 62.6176 134.433 61.2843 132.02 59.5065C129.667 57.6695 127.555 55.4176 125.684 52.751L132.382 45.1954C135.338 49.3435 138.174 52.2176 140.89 53.8176C143.605 55.4176 146.833 56.2176 150.574 56.2176C152.867 56.2176 154.948 55.8621 156.819 55.151C158.689 54.4398 160.168 53.4621 161.254 52.2176C162.34 50.9732 162.883 49.551 162.883 47.951C162.883 46.8843 162.702 45.8769 162.34 44.9287C161.978 43.9806 161.404 43.1213 160.62 42.351C159.896 41.5806 158.931 40.8695 157.724 40.2176C156.577 39.5658 155.22 39.0028 153.651 38.5287C152.082 37.9954 150.272 37.551 148.221 37.1954C144.962 36.5436 142.126 35.6843 139.713 34.6176C137.299 33.551 135.278 32.2176 133.649 30.6176C132.02 29.0176 130.813 27.2102 130.029 25.1954C129.244 23.1213 128.852 20.8102 128.852 18.2621C128.852 15.7732 129.395 13.4621 130.481 11.3287C131.628 9.1954 133.166 7.35837 135.097 5.81763C137.088 4.21763 139.411 3.0028 142.066 2.17317C144.721 1.28429 147.587 0.839844 150.664 0.839844C153.923 0.839844 156.909 1.25466 159.624 2.08429C162.34 2.91392 164.753 4.15837 166.865 5.81763C168.977 7.41763 170.727 9.40281 172.114 11.7732L165.236 18.4398C164.029 16.4843 162.672 14.8547 161.163 13.551C159.655 12.188 157.995 11.1806 156.185 10.5287C154.375 9.81762 152.444 9.46207 150.393 9.46207C148.04 9.46207 145.988 9.81762 144.238 10.5287C142.489 11.2398 141.101 12.2473 140.075 13.551C139.11 14.7954 138.627 16.2769 138.627 17.9954C138.627 19.2398 138.868 20.3954 139.351 21.4621C139.834 22.4695 140.558 23.388 141.523 24.2176C142.549 24.988 143.906 25.6991 145.596 26.351C147.285 26.9436 149.307 27.4769 151.66 27.951C154.978 28.6621 157.935 29.5806 160.53 30.7065C163.124 31.7732 165.326 33.0473 167.137 34.5287C168.947 36.0102 170.304 37.6695 171.209 39.5065C172.175 41.3435 172.657 43.3287 172.657 45.4621C172.657 49.4324 171.722 52.8695 169.852 55.7732C167.981 58.6769 165.326 60.9287 161.887 62.5287C158.448 64.0695 154.345 64.8398 149.578 64.8398ZM194.652 45.1065L194.109 34.351L227.325 1.72874H240.177L194.652 45.1065ZM186.507 63.951V1.72874H196.282V63.951H186.507ZM228.502 63.951L204.246 32.1287L211.487 25.9954L240.72 63.951H228.502Z" fill="url(#paint0_linear_0_8731)"/>
<g clip-path="url(#clip0_0_8731)">
<path d="M54.0015 88.2399V71.1903H56.4067V78.6322L55.9863 78.9087C56.142 78.3711 56.4456 77.8796 56.897 77.4342C57.3485 76.9734 57.8856 76.6047 58.5083 76.3282C59.131 76.0364 59.7693 75.8905 60.4231 75.8905C61.3571 75.8905 62.1355 76.0748 62.7582 76.4434C63.3809 76.7967 63.8479 77.342 64.1593 78.0793C64.4706 78.8166 64.6263 79.7458 64.6263 80.8671V88.2399H62.2211V81.0284C62.2211 80.3372 62.1277 79.7689 61.9409 79.3234C61.7541 78.8626 61.4661 78.5324 61.0769 78.3327C60.6877 78.1177 60.2051 78.0255 59.6291 78.0562C59.1621 78.0562 58.734 78.133 58.3448 78.2866C57.9556 78.4249 57.6131 78.6246 57.3174 78.8857C57.0371 79.1468 56.8114 79.454 56.6402 79.8073C56.4845 80.1452 56.4067 80.5138 56.4067 80.9132V88.2399H55.2157C55.0134 88.2399 54.811 88.2399 54.6086 88.2399C54.4062 88.2399 54.2038 88.2399 54.0015 88.2399ZM73.4001 88.4703C72.2014 88.4703 71.1272 88.2015 70.1776 87.6639C69.2435 87.111 68.5041 86.366 67.9592 85.429C67.4143 84.4767 67.1419 83.3938 67.1419 82.1804C67.1419 80.967 67.4143 79.8918 67.9592 78.9548C68.5041 78.0025 69.2435 77.2575 70.1776 76.7199C71.1272 76.167 72.2014 75.8905 73.4001 75.8905C74.5832 75.8905 75.6418 76.167 76.5759 76.7199C77.5255 77.2575 78.2727 78.0025 78.8176 78.9548C79.3625 79.8918 79.6349 80.967 79.6349 82.1804C79.6349 83.3938 79.3625 84.4767 78.8176 85.429C78.2727 86.366 77.5255 87.111 76.5759 87.6639C75.6418 88.2015 74.5832 88.4703 73.4001 88.4703ZM73.4001 86.3046C74.1318 86.3046 74.7856 86.1279 75.3616 85.7746C75.9376 85.406 76.3891 84.9145 76.716 84.3001C77.0429 83.6703 77.1986 82.9638 77.183 82.1804C77.1986 81.3817 77.0429 80.6751 76.716 80.0607C76.3891 79.431 75.9376 78.9394 75.3616 78.5862C74.7856 78.2329 74.1318 78.0562 73.4001 78.0562C72.6684 78.0562 72.0068 78.2406 71.4152 78.6092C70.8392 78.9625 70.3878 79.454 70.0608 80.0838C69.7339 80.6982 69.5782 81.397 69.5938 82.1804C69.5782 82.9638 69.7339 83.6703 70.0608 84.3001C70.3878 84.9145 70.8392 85.406 71.4152 85.7746C72.0068 86.1279 72.6684 86.3046 73.4001 86.3046ZM82.209 88.2399V76.1439H84.6375V78.7244L84.1938 79.0009C84.3184 78.6015 84.513 78.2175 84.7776 77.8489C85.0578 77.4802 85.3926 77.1577 85.7817 76.8812C86.1865 76.5894 86.6146 76.359 87.0661 76.19C87.5331 76.021 88.0079 75.9366 88.4905 75.9366C89.191 75.9366 89.806 76.0518 90.3353 76.2822C90.8646 76.5126 91.3004 76.8582 91.6429 77.319C91.9854 77.7798 92.2345 78.3558 92.3902 79.047L92.0166 78.9548L92.18 78.5631C92.3513 78.2098 92.5848 77.8796 92.8806 77.5724C93.1919 77.2498 93.5422 76.9657 93.9314 76.7199C94.3206 76.4742 94.7331 76.2822 95.169 76.1439C95.6049 76.0057 96.033 75.9366 96.4533 75.9366C97.3718 75.9366 98.1268 76.1209 98.7184 76.4895C99.3255 76.8582 99.777 77.4188 100.073 78.1714C100.384 78.9241 100.54 79.861 100.54 80.9823V88.2399H98.1113V81.1206C98.1113 80.4294 98.0179 79.8687 97.831 79.4386C97.6598 78.9932 97.3951 78.663 97.0371 78.4479C96.679 78.2329 96.2198 78.1254 95.6594 78.1254C95.2235 78.1254 94.8109 78.2022 94.4217 78.3558C94.0481 78.494 93.7212 78.6937 93.441 78.9548C93.1608 79.2159 92.9428 79.5231 92.7871 79.8764C92.6315 80.2143 92.5536 80.5906 92.5536 81.0054V88.2399H90.1251V81.0745C90.1251 80.4447 90.0317 79.9148 89.8449 79.4847C89.6581 79.0393 89.3856 78.7014 89.0276 78.471C88.6695 78.2406 88.2336 78.1254 87.7199 78.1254C87.284 78.1254 86.8793 78.2022 86.5056 78.3558C86.132 78.494 85.8051 78.6937 85.5249 78.9548C85.2447 79.2006 85.0267 79.5001 84.871 79.8534C84.7154 80.1913 84.6375 80.5599 84.6375 80.9593V88.2399H82.209ZM109.481 88.4703C108.22 88.4703 107.099 88.2092 106.118 87.687C105.153 87.1494 104.39 86.4198 103.83 85.4982C103.285 84.5766 103.013 83.5167 103.013 82.3186C103.013 81.3663 103.168 80.4985 103.48 79.7151C103.791 78.9318 104.219 78.2559 104.764 77.6876C105.324 77.1039 105.986 76.6585 106.749 76.3513C107.527 76.0287 108.368 75.8674 109.271 75.8674C110.065 75.8674 110.804 76.021 111.489 76.3282C112.174 76.6201 112.766 77.0271 113.264 77.5494C113.778 78.0716 114.167 78.6937 114.432 79.4156C114.712 80.1222 114.844 80.8978 114.828 81.7426L114.805 82.7564H104.787L104.25 80.8671H112.727L112.377 81.2588V80.7058C112.33 80.199 112.159 79.7458 111.863 79.3465C111.567 78.9471 111.193 78.6322 110.742 78.4018C110.291 78.1714 109.8 78.0562 109.271 78.0562C108.43 78.0562 107.722 78.2175 107.146 78.5401C106.57 78.8473 106.134 79.3081 105.838 79.9225C105.542 80.5215 105.395 81.2665 105.395 82.1574C105.395 83.0022 105.574 83.7394 105.932 84.3692C106.29 84.9836 106.796 85.4598 107.449 85.7977C108.103 86.1356 108.858 86.3046 109.715 86.3046C110.322 86.3046 110.882 86.2047 111.396 86.005C111.925 85.8054 112.493 85.4444 113.1 84.9222L114.315 86.6041C113.941 86.9727 113.482 87.2953 112.937 87.5718C112.408 87.8482 111.84 88.071 111.232 88.2399C110.641 88.3935 110.057 88.4703 109.481 88.4703ZM122.65 88.4703C121.513 88.4703 120.494 88.1938 119.591 87.6409C118.703 87.0879 117.995 86.3353 117.466 85.383C116.952 84.4306 116.695 83.3631 116.695 82.1804C116.695 80.9977 116.952 79.9302 117.466 78.9778C117.995 78.0255 118.703 77.2729 119.591 76.7199C120.494 76.167 121.513 75.8905 122.65 75.8905C123.739 75.8905 124.728 76.1132 125.615 76.5586C126.518 76.9887 127.203 77.5801 127.67 78.3327L126.339 79.9455C126.09 79.5922 125.771 79.2697 125.382 78.9778C124.993 78.686 124.58 78.4556 124.144 78.2866C123.708 78.1177 123.288 78.0332 122.883 78.0332C122.136 78.0332 121.467 78.2175 120.875 78.5862C120.299 78.9394 119.84 79.431 119.497 80.0607C119.155 80.6905 118.984 81.397 118.984 82.1804C118.984 82.9638 119.163 83.6703 119.521 84.3001C119.879 84.9145 120.354 85.406 120.945 85.7746C121.537 86.1433 122.19 86.3276 122.907 86.3276C123.327 86.3276 123.732 86.2585 124.121 86.1202C124.526 85.982 124.915 85.7746 125.288 85.4982C125.662 85.2217 126.012 84.8838 126.339 84.4844L127.67 86.0972C127.172 86.7884 126.456 87.3567 125.522 87.8022C124.603 88.2476 123.646 88.4703 122.65 88.4703ZM135.45 88.4703C134.251 88.4703 133.177 88.2015 132.227 87.6639C131.293 87.111 130.554 86.366 130.009 85.429C129.464 84.4767 129.192 83.3938 129.192 82.1804C129.192 80.967 129.464 79.8918 130.009 78.9548C130.554 78.0025 131.293 77.2575 132.227 76.7199C133.177 76.167 134.251 75.8905 135.45 75.8905C136.633 75.8905 137.692 76.167 138.626 76.7199C139.575 77.2575 140.323 78.0025 140.867 78.9548C141.412 79.8918 141.685 80.967 141.685 82.1804C141.685 83.3938 141.412 84.4767 140.867 85.429C140.323 86.366 139.575 87.111 138.626 87.6639C137.692 88.2015 136.633 88.4703 135.45 88.4703ZM135.45 86.3046C136.182 86.3046 136.835 86.1279 137.411 85.7746C137.987 85.406 138.439 84.9145 138.766 84.3001C139.093 83.6703 139.248 82.9638 139.233 82.1804C139.248 81.3817 139.093 80.6751 138.766 80.0607C138.439 79.431 137.987 78.9394 137.411 78.5862C136.835 78.2329 136.182 78.0562 135.45 78.0562C134.718 78.0562 134.057 78.2406 133.465 78.6092C132.889 78.9625 132.438 79.454 132.111 80.0838C131.784 80.6982 131.628 81.397 131.644 82.1804C131.628 82.9638 131.784 83.6703 132.111 84.3001C132.438 84.9145 132.889 85.406 133.465 85.7746C134.057 86.1279 134.718 86.3046 135.45 86.3046ZM144.259 88.2399V76.1439H146.687V78.7244L146.244 79.0009C146.368 78.6015 146.563 78.2175 146.827 77.8489C147.108 77.4802 147.442 77.1577 147.832 76.8812C148.236 76.5894 148.664 76.359 149.116 76.19C149.583 76.021 150.058 75.9366 150.54 75.9366C151.241 75.9366 151.856 76.0518 152.385 76.2822C152.914 76.5126 153.35 76.8582 153.693 77.319C154.035 77.7798 154.284 78.3558 154.44 79.047L154.066 78.9548L154.23 78.5631C154.401 78.2098 154.635 77.8796 154.93 77.5724C155.242 77.2498 155.592 76.9657 155.981 76.7199C156.37 76.4742 156.783 76.2822 157.219 76.1439C157.655 76.0057 158.083 75.9366 158.503 75.9366C159.422 75.9366 160.177 76.1209 160.768 76.4895C161.375 76.8582 161.827 77.4188 162.123 78.1714C162.434 78.9241 162.59 79.861 162.59 80.9823V88.2399H160.161V81.1206C160.161 80.4294 160.068 79.8687 159.881 79.4386C159.71 78.9932 159.445 78.663 159.087 78.4479C158.729 78.2329 158.27 78.1254 157.709 78.1254C157.273 78.1254 156.861 78.2022 156.472 78.3558C156.098 78.494 155.771 78.6937 155.491 78.9548C155.211 79.2159 154.993 79.5231 154.837 79.8764C154.681 80.2143 154.604 80.5906 154.604 81.0054V88.2399H152.175V81.0745C152.175 80.4447 152.082 79.9148 151.895 79.4847C151.708 79.0393 151.436 78.7014 151.077 78.471C150.719 78.2406 150.283 78.1254 149.77 78.1254C149.334 78.1254 148.929 78.2022 148.555 78.3558C148.182 78.494 147.855 78.6937 147.575 78.9548C147.294 79.2006 147.077 79.5001 146.921 79.8534C146.765 80.1913 146.687 80.5599 146.687 80.9593V88.2399H144.259ZM166.207 88.2399V76.1439H168.612V88.2399H166.207ZM167.375 73.4713C166.861 73.4713 166.464 73.3407 166.184 73.0796C165.904 72.8185 165.764 72.4498 165.764 71.9737C165.764 71.5282 165.904 71.1673 166.184 70.8908C166.48 70.6143 166.877 70.4761 167.375 70.4761C167.889 70.4761 168.285 70.6066 168.566 70.8678C168.846 71.1289 168.986 71.4975 168.986 71.9737C168.986 72.4191 168.838 72.7801 168.542 73.0566C168.262 73.333 167.873 73.4713 167.375 73.4713ZM172.309 88.2399V76.1439H174.714V78.6322L174.294 78.9087C174.449 78.3711 174.753 77.8796 175.204 77.4342C175.656 76.9734 176.193 76.6047 176.816 76.3282C177.438 76.0364 178.077 75.8905 178.73 75.8905C179.664 75.8905 180.443 76.0748 181.065 76.4434C181.688 76.7967 182.155 77.342 182.467 78.0793C182.778 78.8166 182.934 79.7458 182.934 80.8671V88.2399H180.528V81.0284C180.528 80.3372 180.435 79.7689 180.248 79.3234C180.061 78.8626 179.773 78.5324 179.384 78.3327C178.995 78.1177 178.512 78.0255 177.936 78.0562C177.469 78.0562 177.041 78.133 176.652 78.2866C176.263 78.4249 175.92 78.6246 175.625 78.8857C175.344 79.1468 175.119 79.454 174.947 79.8073C174.792 80.1452 174.714 80.5138 174.714 80.9132V88.2399H173.523C173.321 88.2399 173.118 88.2399 172.916 88.2399C172.713 88.2399 172.511 88.2399 172.309 88.2399ZM191.685 93.5391C190.813 93.5391 189.941 93.4009 189.069 93.1244C188.213 92.8633 187.52 92.5177 186.991 92.0876L187.878 90.2444C188.19 90.4748 188.555 90.6745 188.976 90.8434C189.396 91.0278 189.84 91.166 190.307 91.2582C190.774 91.3657 191.233 91.4194 191.685 91.4194C192.541 91.4194 193.257 91.2812 193.833 91.0047C194.409 90.7282 194.845 90.3212 195.141 89.7836C195.436 89.246 195.584 88.5778 195.584 87.7791V85.4521L195.841 85.6134C195.763 86.0895 195.506 86.5503 195.07 86.9958C194.65 87.4258 194.121 87.7791 193.483 88.0556C192.844 88.3321 192.19 88.4703 191.521 88.4703C190.353 88.4703 189.31 88.2015 188.392 87.6639C187.489 87.111 186.773 86.366 186.244 85.429C185.714 84.4767 185.45 83.3938 185.45 82.1804C185.45 80.967 185.707 79.8918 186.22 78.9548C186.75 78.0025 187.466 77.2575 188.369 76.7199C189.287 76.167 190.315 75.8905 191.451 75.8905C191.918 75.8905 192.369 75.9519 192.805 76.0748C193.241 76.1823 193.646 76.3436 194.02 76.5586C194.393 76.7583 194.728 76.981 195.024 77.2268C195.32 77.4726 195.561 77.7337 195.748 78.0102C195.934 78.2866 196.051 78.5478 196.098 78.7935L195.584 78.9778V76.1439H197.989V87.5026C197.989 88.4703 197.841 89.3228 197.546 90.0601C197.265 90.8127 196.853 91.4425 196.308 91.9494C195.763 92.4716 195.102 92.8633 194.323 93.1244C193.545 93.4009 192.665 93.5391 191.685 93.5391ZM191.778 86.2815C192.541 86.2815 193.218 86.1049 193.809 85.7516C194.401 85.3983 194.86 84.9145 195.187 84.3001C195.514 83.6857 195.678 82.9791 195.678 82.1804C195.678 81.3817 195.506 80.6751 195.164 80.0607C194.837 79.431 194.378 78.9394 193.786 78.5862C193.21 78.2329 192.541 78.0562 191.778 78.0562C191.031 78.0562 190.361 78.2406 189.77 78.6092C189.194 78.9625 188.734 79.454 188.392 80.0838C188.065 80.6982 187.902 81.397 187.902 82.1804C187.902 82.9638 188.065 83.6703 188.392 84.3001C188.734 84.9145 189.194 85.3983 189.77 85.7516C190.361 86.1049 191.031 86.2815 191.778 86.2815Z" fill="url(#paint1_radial_0_8731)"/>
</g>
<defs>
<linearGradient id="paint0_linear_0_8731" x1="117.889" y1="-8.27126" x2="117.889" y2="68.5806" gradientUnits="userSpaceOnUse">
<stop offset="0.0416667" stop-color="#690000"/>
<stop offset="0.21875" stop-color="#8B0000"/>
<stop offset="0.411458" stop-color="#AD0303"/>
<stop offset="0.614583" stop-color="#CF1010"/>
<stop offset="0.802083" stop-color="#F12121"/>
<stop offset="1" stop-color="#FF5454"/>
</linearGradient>
<radialGradient id="paint1_radial_0_8731" cx="0" cy="0" r="1" gradientUnits="userSpaceOnUse" gradientTransform="translate(126 79.5999) rotate(90) scale(13.44 73.9459)">
<stop offset="0.682292" stop-color="#FF5454"/>
<stop offset="0.734375" stop-color="#FF8686"/>
</radialGradient>
<clipPath id="clip0_0_8731">
<rect width="144" height="24" fill="white" transform="translate(54 70)"/>
</clipPath>
</defs>
</svg>
