<svg width="17" height="16" viewBox="0 0 17 16" fill="none" xmlns="http://www.w3.org/2000/svg">
<path d="M8.50002 10.6665C8.34425 10.6668 8.1933 10.6126 8.07335 10.5132L4.07335 7.17986C3.93721 7.0667 3.85159 6.90409 3.83534 6.72781C3.81909 6.55152 3.87353 6.376 3.98669 6.23986C4.09985 6.10371 4.26245 6.0181 4.43874 6.00184C4.61502 5.98559 4.79054 6.04003 4.92669 6.15319L8.50002 9.13986L12.0734 6.25986C12.1415 6.20448 12.22 6.16313 12.3042 6.13817C12.3885 6.11322 12.4768 6.10516 12.5641 6.11445C12.6515 6.12374 12.7361 6.15021 12.8132 6.19232C12.8903 6.23444 12.9583 6.29137 13.0134 6.35986C13.0744 6.42841 13.1206 6.50882 13.1492 6.59607C13.1777 6.68332 13.1879 6.77552 13.1791 6.8669C13.1704 6.95827 13.1428 7.04685 13.0983 7.12709C13.0537 7.20733 12.993 7.2775 12.92 7.33319L8.92002 10.5532C8.79663 10.6369 8.64876 10.6768 8.50002 10.6665Z" fill="#808080"/>
</svg>
