<svg width="285" height="117" viewBox="0 0 285 117" fill="none" xmlns="http://www.w3.org/2000/svg">
<g clip-path="url(#clip0_23_4858)">
<path d="M15.7207 69V1.79997H42.0247C46.8247 1.79997 51.1447 2.59997 54.9847 4.19997C58.8887 5.79997 62.2167 8.10397 64.9687 11.112C67.7207 14.12 69.8327 17.672 71.3047 21.768C72.7767 25.864 73.5127 30.408 73.5127 35.4C73.5127 40.392 72.7767 44.968 71.3047 49.128C69.8327 53.224 67.7207 56.776 64.9687 59.784C62.2807 62.728 58.9847 65 55.0807 66.6C51.1767 68.2 46.8247 69 42.0247 69H15.7207ZM26.0887 60.072L25.8007 59.016H41.5447C44.9367 59.016 47.9447 58.472 50.5687 57.384C53.2567 56.296 55.4967 54.76 57.2887 52.776C59.1447 50.728 60.5527 48.232 61.5127 45.288C62.4727 42.344 62.9527 39.048 62.9527 35.4C62.9527 31.752 62.4727 28.488 61.5127 25.608C60.5527 22.664 59.1447 20.168 57.2887 18.12C55.4327 16.072 53.1927 14.504 50.5687 13.416C47.9447 12.328 44.9367 11.784 41.5447 11.784H25.5127L26.0887 10.92V60.072ZM78.6502 69L104.666 1.79997H115.226L141.05 69H130.01L114.65 28.488C114.458 28.04 114.074 26.952 113.498 25.224C112.986 23.496 112.378 21.576 111.674 19.464C110.97 17.352 110.33 15.432 109.754 13.704C109.178 11.912 108.794 10.76 108.602 10.248L110.81 10.152C110.426 11.24 109.946 12.616 109.37 14.28C108.858 15.944 108.282 17.704 107.642 19.56C107.066 21.416 106.49 23.176 105.914 24.84C105.338 26.44 104.858 27.784 104.474 28.872L89.2102 69H78.6502ZM90.1702 52.296L94.0102 42.312H124.538L128.954 52.296H90.1702ZM173.613 69.96C169.965 69.96 166.573 69.48 163.437 68.52C160.365 67.56 157.549 66.12 154.989 64.2C152.493 62.216 150.253 59.784 148.269 56.904L155.373 48.744C158.509 53.224 161.517 56.328 164.397 58.056C167.277 59.784 170.701 60.648 174.669 60.648C177.101 60.648 179.309 60.264 181.293 59.496C183.277 58.728 184.845 57.672 185.997 56.328C187.149 54.984 187.725 53.448 187.725 51.72C187.725 50.568 187.533 49.48 187.149 48.456C186.765 47.432 186.157 46.504 185.325 45.672C184.557 44.84 183.533 44.072 182.253 43.368C181.037 42.664 179.597 42.056 177.933 41.544C176.269 40.968 174.349 40.488 172.173 40.104C168.717 39.4 165.709 38.472 163.149 37.32C160.589 36.168 158.445 34.728 156.717 33C154.989 31.272 153.709 29.32 152.877 27.144C152.045 24.904 151.629 22.408 151.629 19.656C151.629 16.968 152.205 14.472 153.357 12.168C154.573 9.86397 156.205 7.87997 158.253 6.21597C160.365 4.48797 162.829 3.17596 165.645 2.27996C168.461 1.31997 171.501 0.839966 174.765 0.839966C178.221 0.839966 181.389 1.28797 184.269 2.18397C187.149 3.07997 189.709 4.42397 191.949 6.21597C194.189 7.94397 196.045 10.088 197.517 12.648L190.221 19.848C188.941 17.736 187.501 15.976 185.901 14.568C184.301 13.096 182.541 12.008 180.621 11.304C178.701 10.536 176.653 10.152 174.477 10.152C171.981 10.152 169.805 10.536 167.949 11.304C166.093 12.072 164.621 13.16 163.533 14.568C162.509 15.912 161.997 17.512 161.997 19.368C161.997 20.712 162.253 21.96 162.765 23.112C163.277 24.2 164.045 25.192 165.069 26.088C166.157 26.92 167.597 27.688 169.389 28.392C171.181 29.032 173.325 29.608 175.821 30.12C179.341 30.888 182.477 31.88 185.229 33.096C187.981 34.248 190.317 35.624 192.237 37.224C194.157 38.824 195.597 40.616 196.557 42.6C197.581 44.584 198.093 46.728 198.093 49.032C198.093 53.32 197.101 57.032 195.117 60.168C193.133 63.304 190.317 65.736 186.669 67.464C183.021 69.128 178.669 69.96 173.613 69.96ZM221.423 48.648L220.847 37.032L256.079 1.79997H269.711L221.423 48.648ZM212.783 69V1.79997H223.151V69H212.783ZM257.327 69L231.599 34.632L239.279 28.008L270.287 69H257.327Z" fill="url(#paint0_linear_23_4858)"/>
</g>
<g clip-path="url(#clip1_23_4858)">
<path d="M69.0015 89V71.24H71.4735V78.992L71.0415 79.28C71.2015 78.72 71.5135 78.208 71.9775 77.744C72.4415 77.264 72.9935 76.88 73.6335 76.592C74.2735 76.288 74.9295 76.136 75.6015 76.136C76.5615 76.136 77.3615 76.328 78.0015 76.712C78.6415 77.08 79.1214 77.648 79.4414 78.416C79.7614 79.184 79.9214 80.152 79.9214 81.32V89H77.4495V81.488C77.4495 80.768 77.3535 80.176 77.1615 79.712C76.9695 79.232 76.6735 78.888 76.2735 78.68C75.8735 78.456 75.3775 78.36 74.7855 78.392C74.3055 78.392 73.8655 78.472 73.4655 78.632C73.0655 78.776 72.7135 78.984 72.4095 79.256C72.1215 79.528 71.8895 79.848 71.7135 80.216C71.5535 80.568 71.4735 80.952 71.4735 81.368V89H70.2495C70.0415 89 69.8335 89 69.6255 89C69.4175 89 69.2095 89 69.0015 89ZM88.9389 89.24C87.7069 89.24 86.6029 88.96 85.6269 88.4C84.6669 87.824 83.9069 87.048 83.3469 86.072C82.7869 85.08 82.5069 83.952 82.5069 82.688C82.5069 81.424 82.7869 80.304 83.3469 79.328C83.9069 78.336 84.6669 77.56 85.6269 77C86.6029 76.424 87.7069 76.136 88.9389 76.136C90.1549 76.136 91.2429 76.424 92.2029 77C93.1789 77.56 93.9469 78.336 94.5069 79.328C95.0669 80.304 95.3469 81.424 95.3469 82.688C95.3469 83.952 95.0669 85.08 94.5069 86.072C93.9469 87.048 93.1789 87.824 92.2029 88.4C91.2429 88.96 90.1549 89.24 88.9389 89.24ZM88.9389 86.984C89.6909 86.984 90.3629 86.8 90.9549 86.432C91.5469 86.048 92.0109 85.536 92.3469 84.896C92.6829 84.24 92.8429 83.504 92.8269 82.688C92.8429 81.856 92.6829 81.12 92.3469 80.48C92.0109 79.824 91.5469 79.312 90.9549 78.944C90.3629 78.576 89.6909 78.392 88.9389 78.392C88.1869 78.392 87.5069 78.584 86.8989 78.968C86.3069 79.336 85.8429 79.848 85.5069 80.504C85.1709 81.144 85.0109 81.872 85.0269 82.688C85.0109 83.504 85.1709 84.24 85.5069 84.896C85.8429 85.536 86.3069 86.048 86.8989 86.432C87.5069 86.8 88.1869 86.984 88.9389 86.984ZM97.9925 89V76.4H100.489V79.088L100.033 79.376C100.161 78.96 100.361 78.56 100.633 78.176C100.921 77.792 101.265 77.456 101.665 77.168C102.081 76.864 102.521 76.624 102.985 76.448C103.465 76.272 103.953 76.184 104.449 76.184C105.169 76.184 105.801 76.304 106.345 76.544C106.889 76.784 107.337 77.144 107.689 77.624C108.041 78.104 108.297 78.704 108.457 79.424L108.073 79.328L108.241 78.92C108.417 78.552 108.657 78.208 108.961 77.888C109.281 77.552 109.641 77.256 110.041 77C110.441 76.744 110.865 76.544 111.313 76.4C111.761 76.256 112.201 76.184 112.633 76.184C113.577 76.184 114.353 76.376 114.961 76.76C115.585 77.144 116.049 77.728 116.353 78.512C116.673 79.296 116.833 80.272 116.833 81.44V89H114.337V81.584C114.337 80.864 114.241 80.28 114.049 79.832C113.873 79.368 113.601 79.024 113.233 78.8C112.865 78.576 112.393 78.464 111.817 78.464C111.369 78.464 110.945 78.544 110.545 78.704C110.161 78.848 109.825 79.056 109.537 79.328C109.249 79.6 109.025 79.92 108.865 80.288C108.705 80.64 108.625 81.032 108.625 81.464V89H106.129V81.536C106.129 80.88 106.033 80.328 105.841 79.88C105.649 79.416 105.369 79.064 105.001 78.824C104.633 78.584 104.185 78.464 103.657 78.464C103.209 78.464 102.793 78.544 102.409 78.704C102.025 78.848 101.689 79.056 101.401 79.328C101.113 79.584 100.889 79.896 100.729 80.264C100.569 80.616 100.489 81 100.489 81.416V89H97.9925ZM126.022 89.24C124.726 89.24 123.574 88.968 122.566 88.424C121.574 87.864 120.79 87.104 120.214 86.144C119.654 85.184 119.374 84.08 119.374 82.832C119.374 81.84 119.534 80.936 119.854 80.12C120.174 79.304 120.614 78.6 121.174 78.008C121.75 77.4 122.43 76.936 123.214 76.616C124.014 76.28 124.878 76.112 125.806 76.112C126.622 76.112 127.382 76.272 128.086 76.592C128.79 76.896 129.398 77.32 129.91 77.864C130.438 78.408 130.838 79.056 131.11 79.808C131.398 80.544 131.534 81.352 131.518 82.232L131.494 83.288H121.198L120.646 81.32H129.358L128.998 81.728V81.152C128.95 80.624 128.774 80.152 128.47 79.736C128.166 79.32 127.782 78.992 127.318 78.752C126.854 78.512 126.35 78.392 125.806 78.392C124.942 78.392 124.214 78.56 123.622 78.896C123.03 79.216 122.582 79.696 122.278 80.336C121.974 80.96 121.822 81.736 121.822 82.664C121.822 83.544 122.006 84.312 122.374 84.968C122.742 85.608 123.262 86.104 123.934 86.456C124.606 86.808 125.382 86.984 126.262 86.984C126.886 86.984 127.462 86.88 127.99 86.672C128.534 86.464 129.118 86.088 129.742 85.544L130.99 87.296C130.606 87.68 130.134 88.016 129.574 88.304C129.03 88.592 128.446 88.824 127.822 89C127.214 89.16 126.614 89.24 126.022 89.24ZM139.557 89.24C138.389 89.24 137.341 88.952 136.413 88.376C135.501 87.8 134.773 87.016 134.229 86.024C133.701 85.032 133.437 83.92 133.437 82.688C133.437 81.456 133.701 80.344 134.229 79.352C134.773 78.36 135.501 77.576 136.413 77C137.341 76.424 138.389 76.136 139.557 76.136C140.677 76.136 141.693 76.368 142.605 76.832C143.533 77.28 144.237 77.896 144.717 78.68L143.349 80.36C143.093 79.992 142.765 79.656 142.365 79.352C141.965 79.048 141.541 78.808 141.093 78.632C140.645 78.456 140.213 78.368 139.797 78.368C139.029 78.368 138.341 78.56 137.733 78.944C137.141 79.312 136.669 79.824 136.317 80.48C135.965 81.136 135.789 81.872 135.789 82.688C135.789 83.504 135.973 84.24 136.341 84.896C136.709 85.536 137.197 86.048 137.805 86.432C138.413 86.816 139.085 87.008 139.821 87.008C140.253 87.008 140.669 86.936 141.069 86.792C141.485 86.648 141.885 86.432 142.269 86.144C142.653 85.856 143.013 85.504 143.349 85.088L144.717 86.768C144.205 87.488 143.469 88.08 142.509 88.544C141.565 89.008 140.581 89.24 139.557 89.24ZM152.712 89.24C151.48 89.24 150.376 88.96 149.4 88.4C148.44 87.824 147.68 87.048 147.12 86.072C146.56 85.08 146.28 83.952 146.28 82.688C146.28 81.424 146.56 80.304 147.12 79.328C147.68 78.336 148.44 77.56 149.4 77C150.376 76.424 151.48 76.136 152.712 76.136C153.928 76.136 155.016 76.424 155.976 77C156.952 77.56 157.72 78.336 158.28 79.328C158.84 80.304 159.12 81.424 159.12 82.688C159.12 83.952 158.84 85.08 158.28 86.072C157.72 87.048 156.952 87.824 155.976 88.4C155.016 88.96 153.928 89.24 152.712 89.24ZM152.712 86.984C153.464 86.984 154.136 86.8 154.728 86.432C155.32 86.048 155.784 85.536 156.12 84.896C156.456 84.24 156.616 83.504 156.6 82.688C156.616 81.856 156.456 81.12 156.12 80.48C155.784 79.824 155.32 79.312 154.728 78.944C154.136 78.576 153.464 78.392 152.712 78.392C151.96 78.392 151.28 78.584 150.672 78.968C150.08 79.336 149.616 79.848 149.28 80.504C148.944 81.144 148.784 81.872 148.8 82.688C148.784 83.504 148.944 84.24 149.28 84.896C149.616 85.536 150.08 86.048 150.672 86.432C151.28 86.8 151.96 86.984 152.712 86.984ZM161.766 89V76.4H164.262V79.088L163.806 79.376C163.934 78.96 164.134 78.56 164.406 78.176C164.694 77.792 165.038 77.456 165.438 77.168C165.854 76.864 166.294 76.624 166.758 76.448C167.238 76.272 167.726 76.184 168.222 76.184C168.942 76.184 169.574 76.304 170.118 76.544C170.662 76.784 171.11 77.144 171.462 77.624C171.814 78.104 172.07 78.704 172.23 79.424L171.846 79.328L172.014 78.92C172.19 78.552 172.43 78.208 172.734 77.888C173.054 77.552 173.414 77.256 173.814 77C174.214 76.744 174.638 76.544 175.086 76.4C175.534 76.256 175.974 76.184 176.406 76.184C177.35 76.184 178.126 76.376 178.734 76.76C179.358 77.144 179.822 77.728 180.126 78.512C180.446 79.296 180.606 80.272 180.606 81.44V89H178.11V81.584C178.11 80.864 178.014 80.28 177.822 79.832C177.646 79.368 177.374 79.024 177.006 78.8C176.638 78.576 176.166 78.464 175.59 78.464C175.142 78.464 174.718 78.544 174.318 78.704C173.934 78.848 173.598 79.056 173.31 79.328C173.022 79.6 172.798 79.92 172.638 80.288C172.478 80.64 172.398 81.032 172.398 81.464V89H169.902V81.536C169.902 80.88 169.806 80.328 169.614 79.88C169.422 79.416 169.142 79.064 168.774 78.824C168.406 78.584 167.958 78.464 167.43 78.464C166.982 78.464 166.566 78.544 166.182 78.704C165.798 78.848 165.462 79.056 165.174 79.328C164.886 79.584 164.662 79.896 164.502 80.264C164.342 80.616 164.262 81 164.262 81.416V89H161.766ZM184.324 89V76.4H186.796V89H184.324ZM185.524 73.616C184.996 73.616 184.588 73.48 184.3 73.208C184.012 72.936 183.868 72.552 183.868 72.056C183.868 71.592 184.012 71.216 184.3 70.928C184.604 70.64 185.012 70.496 185.524 70.496C186.052 70.496 186.46 70.632 186.748 70.904C187.036 71.176 187.18 71.56 187.18 72.056C187.18 72.52 187.028 72.896 186.724 73.184C186.436 73.472 186.036 73.616 185.524 73.616ZM190.595 89V76.4H193.067V78.992L192.635 79.28C192.795 78.72 193.107 78.208 193.571 77.744C194.035 77.264 194.587 76.88 195.227 76.592C195.867 76.288 196.523 76.136 197.195 76.136C198.155 76.136 198.955 76.328 199.595 76.712C200.235 77.08 200.715 77.648 201.035 78.416C201.355 79.184 201.515 80.152 201.515 81.32V89H199.043V81.488C199.043 80.768 198.947 80.176 198.755 79.712C198.563 79.232 198.267 78.888 197.867 78.68C197.467 78.456 196.971 78.36 196.379 78.392C195.899 78.392 195.459 78.472 195.059 78.632C194.659 78.776 194.307 78.984 194.003 79.256C193.715 79.528 193.483 79.848 193.307 80.216C193.147 80.568 193.067 80.952 193.067 81.368V89H191.843C191.635 89 191.427 89 191.219 89C191.011 89 190.803 89 190.595 89ZM210.509 94.52C209.613 94.52 208.717 94.376 207.821 94.088C206.941 93.816 206.229 93.456 205.685 93.008L206.597 91.088C206.917 91.328 207.293 91.536 207.725 91.712C208.157 91.904 208.613 92.048 209.093 92.144C209.573 92.256 210.045 92.312 210.509 92.312C211.389 92.312 212.125 92.168 212.717 91.88C213.309 91.592 213.757 91.168 214.061 90.608C214.365 90.048 214.517 89.352 214.517 88.52V86.096L214.781 86.264C214.701 86.76 214.437 87.24 213.989 87.704C213.557 88.152 213.013 88.52 212.357 88.808C211.701 89.096 211.029 89.24 210.341 89.24C209.141 89.24 208.069 88.96 207.125 88.4C206.197 87.824 205.461 87.048 204.917 86.072C204.373 85.08 204.101 83.952 204.101 82.688C204.101 81.424 204.365 80.304 204.893 79.328C205.437 78.336 206.173 77.56 207.101 77C208.045 76.424 209.101 76.136 210.269 76.136C210.749 76.136 211.213 76.2 211.661 76.328C212.109 76.44 212.525 76.608 212.909 76.832C213.293 77.04 213.637 77.272 213.941 77.528C214.245 77.784 214.493 78.056 214.685 78.344C214.877 78.632 214.997 78.904 215.045 79.16L214.517 79.352V76.4H216.989V88.232C216.989 89.24 216.837 90.128 216.533 90.896C216.245 91.68 215.821 92.336 215.261 92.864C214.701 93.408 214.021 93.816 213.221 94.088C212.421 94.376 211.517 94.52 210.509 94.52ZM210.605 86.96C211.389 86.96 212.085 86.776 212.693 86.408C213.301 86.04 213.773 85.536 214.109 84.896C214.445 84.256 214.613 83.52 214.613 82.688C214.613 81.856 214.437 81.12 214.085 80.48C213.749 79.824 213.277 79.312 212.669 78.944C212.077 78.576 211.389 78.392 210.605 78.392C209.837 78.392 209.149 78.584 208.541 78.968C207.949 79.336 207.477 79.848 207.125 80.504C206.789 81.144 206.621 81.872 206.621 82.688C206.621 83.504 206.789 84.24 207.125 84.896C207.477 85.536 207.949 86.04 208.541 86.408C209.149 86.776 209.837 86.96 210.605 86.96Z" fill="url(#paint1_radial_23_4858)"/>
</g>
<defs>
<linearGradient id="paint0_linear_23_4858" x1="140" y1="-9.00003" x2="140" y2="74" gradientUnits="userSpaceOnUse">
<stop offset="0.0416667" stop-color="#690000"/>
<stop offset="0.21875" stop-color="#8B0000"/>
<stop offset="0.411458" stop-color="#AD0303"/>
<stop offset="0.614583" stop-color="#CF1010"/>
<stop offset="0.802083" stop-color="#F12121"/>
<stop offset="1" stop-color="#FF5454"/>
</linearGradient>
<radialGradient id="paint1_radial_23_4858" cx="0" cy="0" r="1" gradientUnits="userSpaceOnUse" gradientTransform="translate(143 80) rotate(90) scale(14 76)">
<stop offset="0.682292" stop-color="#FF5454"/>
<stop offset="0.734375" stop-color="#FF8686"/>
</radialGradient>
<clipPath id="clip0_23_4858">
<rect width="256" height="70" fill="white" transform="translate(15)"/>
</clipPath>
<clipPath id="clip1_23_4858">
<rect width="148" height="25" fill="white" transform="translate(69 70)"/>
</clipPath>
</defs>
</svg>
