<svg width="17" height="16" viewBox="0 0 17 16" fill="none" xmlns="http://www.w3.org/2000/svg">
<path d="M8.02956 10.6665C7.87379 10.6668 7.72284 10.6126 7.6029 10.5132L3.6029 7.17986C3.46675 7.0667 3.38113 6.90409 3.36488 6.72781C3.34863 6.55152 3.40307 6.376 3.51623 6.23986C3.62939 6.10371 3.792 6.0181 3.96828 6.00184C4.14456 5.98559 4.32008 6.04003 4.45623 6.15319L8.02956 9.13986L11.6029 6.25986C11.6711 6.20448 11.7496 6.16313 11.8338 6.13817C11.918 6.11322 12.0063 6.10516 12.0937 6.11445C12.181 6.12374 12.2657 6.15021 12.3428 6.19232C12.4199 6.23444 12.4879 6.29137 12.5429 6.35986C12.6039 6.42841 12.6502 6.50882 12.6787 6.59607C12.7072 6.68332 12.7174 6.77552 12.7087 6.8669C12.6999 6.95827 12.6724 7.04685 12.6278 7.12709C12.5832 7.20733 12.5225 7.2775 12.4496 7.33319L8.44956 10.5532C8.32617 10.6369 8.1783 10.6768 8.02956 10.6665Z" fill="#808080"/>
</svg>
