<svg width="32" height="32" viewBox="0 0 32 32" fill="none" xmlns="http://www.w3.org/2000/svg">
<rect width="32" height="32" rx="8" fill="url(#paint0_linear_521_380)"/>
<g clip-path="url(#clip0_521_380)">
<path d="M2.08374 18.461V11.2017H4.96494C5.4907 11.2017 5.96389 11.2881 6.3845 11.461C6.81213 11.6338 7.17666 11.8827 7.4781 12.2077C7.77953 12.5326 8.01087 12.9163 8.17211 13.3588C8.33334 13.8012 8.41396 14.2921 8.41396 14.8314C8.41396 15.3706 8.33334 15.8649 8.17211 16.3143C8.01087 16.7568 7.77953 17.1405 7.4781 17.4654C7.18367 17.7835 6.82264 18.0289 6.39502 18.2017C5.9674 18.3746 5.4907 18.461 4.96494 18.461H2.08374ZM3.21939 17.4965L3.18785 17.3825H4.91236C5.2839 17.3825 5.61338 17.3237 5.9008 17.2062C6.19523 17.0886 6.44058 16.9227 6.63687 16.7084C6.84017 16.4872 6.99439 16.2175 7.09954 15.8995C7.2047 15.5815 7.25727 15.2254 7.25727 14.8314C7.25727 14.4373 7.2047 14.0847 7.09954 13.7736C6.99439 13.4556 6.84017 13.1859 6.63687 12.9647C6.43357 12.7435 6.18822 12.5741 5.9008 12.4565C5.61338 12.339 5.2839 12.2802 4.91236 12.2802H3.1563L3.21939 12.1869V17.4965ZM8.97669 18.461L11.8263 11.2017H12.983L15.8116 18.461H14.6024L12.9199 14.0847C12.8989 14.0363 12.8568 13.9188 12.7938 13.7321C12.7377 13.5454 12.6711 13.338 12.594 13.1099C12.5168 12.8817 12.4467 12.6743 12.3837 12.4877C12.3206 12.2941 12.2785 12.1696 12.2575 12.1143L12.4993 12.1039C12.4573 12.2215 12.4047 12.3701 12.3416 12.5499C12.2855 12.7296 12.2224 12.9198 12.1523 13.1202C12.0892 13.3207 12.0261 13.5109 11.963 13.6906C11.8999 13.8635 11.8474 14.0086 11.8053 14.1262L10.1334 18.461H8.97669ZM10.2385 16.6565L10.6591 15.578H14.003L14.4867 16.6565H10.2385ZM19.3784 18.5647C18.9788 18.5647 18.6073 18.5128 18.2638 18.4091C17.9273 18.3054 17.6189 18.1499 17.3384 17.9425C17.065 17.7281 16.8197 17.4654 16.6024 17.1543L17.3805 16.2728C17.724 16.7568 18.0535 17.0921 18.3689 17.2788C18.6844 17.4654 19.0595 17.5588 19.4941 17.5588C19.7605 17.5588 20.0023 17.5173 20.2196 17.4343C20.437 17.3514 20.6087 17.2373 20.7349 17.0921C20.8611 16.9469 20.9242 16.781 20.9242 16.5943C20.9242 16.4699 20.9031 16.3523 20.8611 16.2417C20.819 16.1311 20.7524 16.0309 20.6613 15.941C20.5772 15.8511 20.465 15.7681 20.3248 15.6921C20.1916 15.616 20.0339 15.5504 19.8516 15.4951C19.6693 15.4328 19.459 15.381 19.2207 15.3395C18.8421 15.2635 18.5127 15.1632 18.2322 15.0388C17.9518 14.9143 17.717 14.7588 17.5277 14.5721C17.3384 14.3854 17.1982 14.1746 17.1071 13.9395C17.016 13.6975 16.9704 13.4279 16.9704 13.1306C16.9704 12.8402 17.0335 12.5706 17.1597 12.3217C17.2929 12.0728 17.4716 11.8585 17.696 11.6788C17.9273 11.4921 18.1972 11.3504 18.5056 11.2536C18.8141 11.1499 19.1471 11.098 19.5046 11.098C19.8832 11.098 20.2302 11.1464 20.5456 11.2432C20.8611 11.34 21.1415 11.4852 21.3868 11.6788C21.6322 11.8654 21.8355 12.097 21.9967 12.3736L21.1976 13.1514C21.0574 12.9232 20.8996 12.7331 20.7244 12.581C20.5491 12.422 20.3563 12.3044 20.146 12.2284C19.9357 12.1454 19.7114 12.1039 19.4731 12.1039C19.1997 12.1039 18.9613 12.1454 18.758 12.2284C18.5547 12.3114 18.3935 12.4289 18.2743 12.581C18.1621 12.7262 18.1061 12.899 18.1061 13.0995C18.1061 13.2447 18.1341 13.3795 18.1902 13.5039C18.2463 13.6215 18.3304 13.7286 18.4426 13.8254C18.5617 13.9153 18.7195 13.9983 18.9157 14.0743C19.112 14.1435 19.3469 14.2057 19.6203 14.261C20.0058 14.3439 20.3493 14.4511 20.6508 14.5825C20.9522 14.7069 21.2081 14.8556 21.4184 15.0284C21.6287 15.2012 21.7864 15.3948 21.8916 15.6091C22.0037 15.8235 22.0598 16.0551 22.0598 16.3039C22.0598 16.7672 21.9512 17.1681 21.7338 17.5069C21.5165 17.8457 21.2081 18.1084 20.8085 18.2951C20.4089 18.4748 19.9322 18.5647 19.3784 18.5647ZM24.6153 16.2625L24.5522 15.0077L28.4113 11.2017H29.9045L24.6153 16.2625ZM23.6689 18.461V11.2017H24.8045V18.461H23.6689ZM28.548 18.461L25.7299 14.7484L26.5711 14.0328L29.9676 18.461H28.548Z" fill="url(#paint1_linear_521_380)"/>
</g>
<g clip-path="url(#clip1_521_380)">
<path d="M7.69287 21.7114V19.7222H7.97231V20.5905L7.92348 20.6227C7.94156 20.56 7.97683 20.5027 8.02929 20.4507C8.08174 20.3969 8.14414 20.3539 8.21648 20.3217C8.28883 20.2876 8.36299 20.2706 8.43895 20.2706C8.54747 20.2706 8.63791 20.2921 8.71025 20.3351C8.7826 20.3763 8.83686 20.4399 8.87303 20.526C8.9092 20.612 8.92729 20.7204 8.92729 20.8512V21.7114H8.64785V20.87C8.64785 20.7894 8.637 20.7231 8.6153 20.6711C8.59359 20.6173 8.56013 20.5788 8.51492 20.5555C8.4697 20.5304 8.41363 20.5197 8.34671 20.5233C8.29245 20.5233 8.24271 20.5322 8.19749 20.5501C8.15228 20.5663 8.11249 20.5896 8.07812 20.62C8.04556 20.6505 8.01934 20.6863 7.99944 20.7276C7.98136 20.767 7.97231 20.81 7.97231 20.8566V21.7114H7.83395C7.81044 21.7114 7.78692 21.7114 7.76341 21.7114C7.7399 21.7114 7.71638 21.7114 7.69287 21.7114ZM9.94665 21.7382C9.80738 21.7382 9.68258 21.7069 9.57225 21.6442C9.46373 21.5797 9.37782 21.4927 9.31452 21.3834C9.25121 21.2723 9.21956 21.146 9.21956 21.0044C9.21956 20.8629 9.25121 20.7374 9.31452 20.6281C9.37782 20.517 9.46373 20.4301 9.57225 20.3674C9.68258 20.3029 9.80738 20.2706 9.94665 20.2706C10.0841 20.2706 10.2071 20.3029 10.3156 20.3674C10.426 20.4301 10.5128 20.517 10.5761 20.6281C10.6394 20.7374 10.671 20.8629 10.671 21.0044C10.671 21.146 10.6394 21.2723 10.5761 21.3834C10.5128 21.4927 10.426 21.5797 10.3156 21.6442C10.2071 21.7069 10.0841 21.7382 9.94665 21.7382ZM9.94665 21.4856C10.0317 21.4856 10.1076 21.465 10.1745 21.4237C10.2415 21.3807 10.2939 21.3234 10.3319 21.2517C10.3699 21.1782 10.388 21.0958 10.3862 21.0044C10.388 20.9112 10.3699 20.8288 10.3319 20.7571C10.2939 20.6837 10.2415 20.6263 10.1745 20.5851C10.1076 20.5439 10.0317 20.5233 9.94665 20.5233C9.86164 20.5233 9.78477 20.5448 9.71604 20.5878C9.64912 20.629 9.59667 20.6863 9.55869 20.7598C9.52071 20.8315 9.50262 20.913 9.50443 21.0044C9.50262 21.0958 9.52071 21.1782 9.55869 21.2517C9.59667 21.3234 9.64912 21.3807 9.71604 21.4237C9.78477 21.465 9.86164 21.4856 9.94665 21.4856ZM10.9701 21.7114V20.3002H11.2522V20.6012L11.2007 20.6335C11.2152 20.5869 11.2378 20.5421 11.2685 20.4991C11.3011 20.4561 11.34 20.4184 11.3852 20.3862C11.4322 20.3521 11.4819 20.3253 11.5344 20.3055C11.5887 20.2858 11.6438 20.276 11.6999 20.276C11.7813 20.276 11.8527 20.2894 11.9142 20.3163C11.9757 20.3432 12.0264 20.3835 12.0662 20.4373C12.1059 20.491 12.1349 20.5582 12.153 20.6389L12.1096 20.6281L12.1286 20.5824C12.1484 20.5412 12.1756 20.5027 12.2099 20.4668C12.2461 20.4292 12.2868 20.396 12.332 20.3674C12.3772 20.3387 12.4252 20.3163 12.4758 20.3002C12.5265 20.284 12.5762 20.276 12.625 20.276C12.7317 20.276 12.8195 20.2975 12.8882 20.3405C12.9587 20.3835 13.0112 20.4489 13.0456 20.5367C13.0817 20.6245 13.0998 20.7338 13.0998 20.8646V21.7114H12.8177V20.8808C12.8177 20.8001 12.8068 20.7347 12.7851 20.6845C12.7652 20.6326 12.7345 20.5941 12.6929 20.569C12.6513 20.5439 12.5979 20.5313 12.5328 20.5313C12.4821 20.5313 12.4342 20.5403 12.389 20.5582C12.3456 20.5743 12.3076 20.5976 12.2751 20.6281C12.2425 20.6586 12.2172 20.6944 12.1991 20.7356C12.181 20.775 12.172 20.8189 12.172 20.8673V21.7114H11.8898V20.8754C11.8898 20.8019 11.879 20.7401 11.8572 20.6899C11.8355 20.638 11.8039 20.5985 11.7623 20.5717C11.7207 20.5448 11.6701 20.5313 11.6104 20.5313C11.5597 20.5313 11.5127 20.5403 11.4693 20.5582C11.4259 20.5743 11.3879 20.5976 11.3553 20.6281C11.3228 20.6568 11.2975 20.6917 11.2794 20.7329C11.2613 20.7724 11.2522 20.8154 11.2522 20.862V21.7114H10.9701ZM14.1386 21.7382C13.9921 21.7382 13.8619 21.7078 13.748 21.6469C13.6358 21.5841 13.5472 21.499 13.4821 21.3915C13.4188 21.284 13.3871 21.1603 13.3871 21.0205C13.3871 20.9094 13.4052 20.8082 13.4414 20.7168C13.4776 20.6254 13.5273 20.5466 13.5906 20.4803C13.6557 20.4122 13.7326 20.3602 13.8212 20.3244C13.9116 20.2867 14.0093 20.2679 14.1142 20.2679C14.2065 20.2679 14.2924 20.2858 14.3719 20.3217C14.4515 20.3557 14.5203 20.4032 14.5781 20.4641C14.6378 20.5251 14.683 20.5976 14.7138 20.6819C14.7463 20.7643 14.7617 20.8548 14.7599 20.9533L14.7572 21.0716H13.5933L13.5309 20.8512H14.5157L14.475 20.8969V20.8324C14.4696 20.7733 14.4497 20.7204 14.4154 20.6738C14.381 20.6272 14.3376 20.5905 14.2851 20.5636C14.2327 20.5367 14.1757 20.5233 14.1142 20.5233C14.0165 20.5233 13.9342 20.5421 13.8673 20.5797C13.8004 20.6156 13.7498 20.6693 13.7154 20.741C13.681 20.8109 13.6638 20.8978 13.6638 21.0017C13.6638 21.1003 13.6846 21.1863 13.7262 21.2598C13.7678 21.3315 13.8266 21.387 13.9026 21.4264C13.9786 21.4659 14.0663 21.4856 14.1658 21.4856C14.2363 21.4856 14.3014 21.4739 14.3611 21.4506C14.4226 21.4273 14.4886 21.3852 14.5591 21.3243L14.7002 21.5205C14.6568 21.5635 14.6035 21.6012 14.5402 21.6334C14.4787 21.6657 14.4126 21.6917 14.3421 21.7114C14.2734 21.7293 14.2055 21.7382 14.1386 21.7382ZM15.6686 21.7382C15.5366 21.7382 15.4181 21.706 15.3132 21.6415C15.2101 21.577 15.1278 21.4892 15.0663 21.3781C15.0066 21.2669 14.9768 21.1424 14.9768 21.0044C14.9768 20.8664 15.0066 20.7419 15.0663 20.6308C15.1278 20.5197 15.2101 20.4319 15.3132 20.3674C15.4181 20.3029 15.5366 20.2706 15.6686 20.2706C15.7952 20.2706 15.9101 20.2966 16.0132 20.3485C16.1181 20.3987 16.1976 20.4677 16.2519 20.5555L16.0973 20.7437C16.0683 20.7025 16.0312 20.6648 15.986 20.6308C15.9408 20.5967 15.8929 20.5699 15.8422 20.5501C15.7916 20.5304 15.7428 20.5206 15.6957 20.5206C15.6089 20.5206 15.5311 20.5421 15.4624 20.5851C15.3955 20.6263 15.3421 20.6837 15.3023 20.7571C15.2626 20.8306 15.2427 20.913 15.2427 21.0044C15.2427 21.0958 15.2635 21.1782 15.3051 21.2517C15.3467 21.3234 15.4018 21.3807 15.4706 21.4237C15.5393 21.4668 15.6152 21.4883 15.6984 21.4883C15.7473 21.4883 15.7943 21.4802 15.8395 21.4641C15.8865 21.4479 15.9318 21.4237 15.9752 21.3915C16.0186 21.3592 16.0593 21.3198 16.0973 21.2732L16.2519 21.4614C16.194 21.542 16.1108 21.6083 16.0023 21.6603C15.8956 21.7123 15.7844 21.7382 15.6686 21.7382ZM17.1558 21.7382C17.0165 21.7382 16.8917 21.7069 16.7814 21.6442C16.6728 21.5797 16.5869 21.4927 16.5236 21.3834C16.4603 21.2723 16.4287 21.146 16.4287 21.0044C16.4287 20.8629 16.4603 20.7374 16.5236 20.6281C16.5869 20.517 16.6728 20.4301 16.7814 20.3674C16.8917 20.3029 17.0165 20.2706 17.1558 20.2706C17.2932 20.2706 17.4162 20.3029 17.5247 20.3674C17.6351 20.4301 17.7219 20.517 17.7852 20.6281C17.8485 20.7374 17.8801 20.8629 17.8801 21.0044C17.8801 21.146 17.8485 21.2723 17.7852 21.3834C17.7219 21.4927 17.6351 21.5797 17.5247 21.6442C17.4162 21.7069 17.2932 21.7382 17.1558 21.7382ZM17.1558 21.4856C17.2408 21.4856 17.3167 21.465 17.3836 21.4237C17.4506 21.3807 17.503 21.3234 17.541 21.2517C17.579 21.1782 17.5971 21.0958 17.5953 21.0044C17.5971 20.9112 17.579 20.8288 17.541 20.7571C17.503 20.6837 17.4506 20.6263 17.3836 20.5851C17.3167 20.5439 17.2408 20.5233 17.1558 20.5233C17.0707 20.5233 16.9939 20.5448 16.9251 20.5878C16.8582 20.629 16.8058 20.6863 16.7678 20.7598C16.7298 20.8315 16.7117 20.913 16.7135 21.0044C16.7117 21.0958 16.7298 21.1782 16.7678 21.2517C16.8058 21.3234 16.8582 21.3807 16.9251 21.4237C16.9939 21.465 17.0707 21.4856 17.1558 21.4856ZM18.1792 21.7114V20.3002H18.4613V20.6012L18.4098 20.6335C18.4243 20.5869 18.4469 20.5421 18.4776 20.4991C18.5102 20.4561 18.5491 20.4184 18.5943 20.3862C18.6413 20.3521 18.6911 20.3253 18.7435 20.3055C18.7978 20.2858 18.8529 20.276 18.909 20.276C18.9904 20.276 19.0618 20.2894 19.1233 20.3163C19.1848 20.3432 19.2355 20.3835 19.2753 20.4373C19.3151 20.491 19.344 20.5582 19.3621 20.6389L19.3187 20.6281L19.3377 20.5824C19.3576 20.5412 19.3847 20.5027 19.4191 20.4668C19.4552 20.4292 19.4959 20.396 19.5411 20.3674C19.5864 20.3387 19.6343 20.3163 19.6849 20.3002C19.7356 20.284 19.7853 20.276 19.8341 20.276C19.9409 20.276 20.0286 20.2975 20.0973 20.3405C20.1679 20.3835 20.2203 20.4489 20.2547 20.5367C20.2908 20.6245 20.3089 20.7338 20.3089 20.8646V21.7114H20.0268V20.8808C20.0268 20.8001 20.0159 20.7347 19.9942 20.6845C19.9743 20.6326 19.9436 20.5941 19.902 20.569C19.8604 20.5439 19.807 20.5313 19.7419 20.5313C19.6913 20.5313 19.6433 20.5403 19.5981 20.5582C19.5547 20.5743 19.5167 20.5976 19.4842 20.6281C19.4516 20.6586 19.4263 20.6944 19.4082 20.7356C19.3901 20.775 19.3811 20.8189 19.3811 20.8673V21.7114H19.0989V20.8754C19.0989 20.8019 19.0881 20.7401 19.0664 20.6899C19.0447 20.638 19.013 20.5985 18.9714 20.5717C18.9298 20.5448 18.8792 20.5313 18.8195 20.5313C18.7688 20.5313 18.7218 20.5403 18.6784 20.5582C18.635 20.5743 18.597 20.5976 18.5644 20.6281C18.5319 20.6568 18.5066 20.6917 18.4885 20.7329C18.4704 20.7724 18.4613 20.8154 18.4613 20.862V21.7114H18.1792ZM20.7292 21.7114V20.3002H21.0087V21.7114H20.7292ZM20.8649 19.9884C20.8052 19.9884 20.7591 19.9731 20.7265 19.9427C20.694 19.9122 20.6777 19.8692 20.6777 19.8136C20.6777 19.7617 20.694 19.7196 20.7265 19.6873C20.7609 19.655 20.807 19.6389 20.8649 19.6389C20.9246 19.6389 20.9707 19.6541 21.0032 19.6846C21.0358 19.7151 21.0521 19.7581 21.0521 19.8136C21.0521 19.8656 21.0349 19.9077 21.0005 19.94C20.968 19.9722 20.9227 19.9884 20.8649 19.9884ZM21.4381 21.7114V20.3002H21.7175V20.5905L21.6687 20.6227C21.6868 20.56 21.7221 20.5027 21.7745 20.4507C21.827 20.3969 21.8894 20.3539 21.9617 20.3217C22.0341 20.2876 22.1082 20.2706 22.1842 20.2706C22.2927 20.2706 22.3831 20.2921 22.4555 20.3351C22.5278 20.3763 22.5821 20.4399 22.6183 20.526C22.6544 20.612 22.6725 20.7204 22.6725 20.8512V21.7114H22.3931V20.87C22.3931 20.7894 22.3822 20.7231 22.3605 20.6711C22.3388 20.6173 22.3054 20.5788 22.2602 20.5555C22.2149 20.5304 22.1589 20.5197 22.0919 20.5233C22.0377 20.5233 21.9879 20.5322 21.9427 20.5501C21.8975 20.5663 21.8577 20.5896 21.8234 20.62C21.7908 20.6505 21.7646 20.6863 21.7447 20.7276C21.7266 20.767 21.7175 20.81 21.7175 20.8566V21.7114H21.5792C21.5557 21.7114 21.5322 21.7114 21.5086 21.7114C21.4851 21.7114 21.4616 21.7114 21.4381 21.7114ZM23.6892 22.3296C23.588 22.3296 23.4867 22.3135 23.3854 22.2812C23.2859 22.2508 23.2054 22.2104 23.1439 22.1603L23.247 21.9452C23.2832 21.9721 23.3257 21.9954 23.3745 22.0151C23.4234 22.0366 23.4749 22.0527 23.5292 22.0635C23.5834 22.076 23.6368 22.0823 23.6892 22.0823C23.7887 22.0823 23.8719 22.0662 23.9388 22.0339C24.0058 22.0017 24.0564 21.9542 24.0908 21.8915C24.1251 21.8287 24.1423 21.7508 24.1423 21.6576V21.3861L24.1722 21.4049C24.1631 21.4605 24.1333 21.5142 24.0826 21.5662C24.0338 21.6164 23.9723 21.6576 23.8981 21.6899C23.824 21.7221 23.748 21.7382 23.6702 21.7382C23.5346 21.7382 23.4134 21.7069 23.3067 21.6442C23.2018 21.5797 23.1186 21.4927 23.0571 21.3834C22.9956 21.2723 22.9649 21.146 22.9649 21.0044C22.9649 20.8629 22.9947 20.7374 23.0544 20.6281C23.1159 20.517 23.1991 20.4301 23.304 20.3674C23.4107 20.3029 23.5301 20.2706 23.6621 20.2706C23.7164 20.2706 23.7688 20.2778 23.8195 20.2921C23.8701 20.3046 23.9171 20.3235 23.9605 20.3485C24.0039 20.3718 24.0428 20.3978 24.0772 20.4265C24.1116 20.4552 24.1396 20.4856 24.1613 20.5179C24.183 20.5501 24.1966 20.5806 24.202 20.6093L24.1423 20.6308V20.3002H24.4218V21.6253C24.4218 21.7382 24.4046 21.8377 24.3702 21.9237C24.3376 22.0115 24.2897 22.085 24.2264 22.1441C24.1631 22.2051 24.0862 22.2508 23.9958 22.2812C23.9054 22.3135 23.8032 22.3296 23.6892 22.3296ZM23.7001 21.4829C23.7887 21.4829 23.8674 21.4623 23.9361 21.4211C24.0049 21.3798 24.0582 21.3234 24.0962 21.2517C24.1342 21.18 24.1532 21.0976 24.1532 21.0044C24.1532 20.9112 24.1333 20.8288 24.0935 20.7571C24.0555 20.6837 24.0021 20.6263 23.9334 20.5851C23.8665 20.5439 23.7887 20.5233 23.7001 20.5233C23.6133 20.5233 23.5355 20.5448 23.4668 20.5878C23.3998 20.629 23.3465 20.6863 23.3067 20.7598C23.2687 20.8315 23.2497 20.913 23.2497 21.0044C23.2497 21.0958 23.2687 21.1782 23.3067 21.2517C23.3465 21.3234 23.3998 21.3798 23.4668 21.4211C23.5355 21.4623 23.6133 21.4829 23.7001 21.4829Z" fill="url(#paint2_radial_521_380)"/>
</g>
<defs>
<linearGradient id="paint0_linear_521_380" x1="2.5" y1="3" x2="52.5" y2="56.5" gradientUnits="userSpaceOnUse">
<stop stop-color="#FFC7C7"/>
<stop offset="0.733333" stop-color="white"/>
</linearGradient>
<linearGradient id="paint1_linear_521_380" x1="15.6966" y1="10.0351" x2="15.6966" y2="19.0011" gradientUnits="userSpaceOnUse">
<stop offset="0.0416667" stop-color="#690000"/>
<stop offset="0.21875" stop-color="#8B0000"/>
<stop offset="0.411458" stop-color="#AD0303"/>
<stop offset="0.614583" stop-color="#CF1010"/>
<stop offset="0.802083" stop-color="#F12121"/>
<stop offset="1" stop-color="#FF5454"/>
</linearGradient>
<radialGradient id="paint2_radial_521_380" cx="0" cy="0" r="1" gradientUnits="userSpaceOnUse" gradientTransform="translate(16.0579 20.7034) rotate(90) scale(1.568 8.59123)">
<stop offset="0.682292" stop-color="#FF5454"/>
<stop offset="0.734375" stop-color="#FF8686"/>
</radialGradient>
<clipPath id="clip0_521_380">
<rect width="28" height="7.58333" fill="white" transform="translate(2 11)"/>
</clipPath>
<clipPath id="clip1_521_380">
<rect width="16.7303" height="2.8" fill="white" transform="translate(7.69275 19.5834)"/>
</clipPath>
</defs>
</svg>
