<svg width="56" height="56" viewBox="0 0 56 56" fill="none" xmlns="http://www.w3.org/2000/svg">
<rect x="4" y="4" width="48" height="48" rx="24" fill="#FEF0C7"/>
<path d="M27 20.1213H22.8C21.1198 20.1213 20.2798 20.1213 19.638 20.4483C19.0735 20.7359 18.6146 21.1949 18.327 21.7594C18 22.4011 18 23.2412 18 24.9213V33.3213C18 35.0015 18 35.8416 18.327 36.4833C18.6146 37.0478 19.0735 37.5067 19.638 37.7943C20.2798 38.1213 21.1198 38.1213 22.8 38.1213H31.2C32.8802 38.1213 33.7202 38.1213 34.362 37.7943C34.9265 37.5067 35.3854 37.0478 35.673 36.4833C36 35.8416 36 35.0015 36 33.3213V29.1213M24 32.1213H25.6745C26.1637 32.1213 26.4083 32.1213 26.6385 32.0661C26.8425 32.0171 27.0376 31.9363 27.2166 31.8266C27.4184 31.7029 27.5914 31.53 27.9373 31.1841L37.5 21.6213C38.3284 20.7929 38.3284 19.4497 37.5 18.6213C36.6716 17.7929 35.3284 17.7929 34.5 18.6213L24.9372 28.1841C24.5913 28.53 24.4184 28.7029 24.2947 28.9048C24.185 29.0837 24.1042 29.2788 24.0552 29.4829C24 29.713 24 29.9576 24 30.4468V32.1213Z" stroke="#D06A11" stroke-width="2" stroke-linecap="round" stroke-linejoin="round"/>
<rect x="4" y="4" width="48" height="48" rx="24" stroke="#FFFAEB" stroke-width="8"/>
</svg>
